<svg width="49" height="40" viewBox="0 0 49 40" fill="none" xmlns="http://www.w3.org/2000/svg">
<path d="M20.6401 14.6813H9.18848C4.11441 14.6813 0 10.5687 0 5.49286V1.75623C0 1.03111 0.587261 0.443848 1.31238 0.443848H11.969C12.4453 0.443848 12.8857 0.70346 13.1167 1.11884L20.6401 14.6795V14.6813Z" fill="#00F2FF"/>
<path d="M47.6666 14.6813H20.6401L27.3345 0.443848H39.7923C44.8664 0.443848 48.9808 4.55825 48.9808 9.63233V13.369C48.9808 14.0941 48.3935 14.6813 47.6684 14.6813H47.6666Z" fill="#00F2FF"/>
<path d="M34.3118 38.9005L20.6401 14.6813L27.3345 0.443848L42.6606 25.03C45.1976 29.4237 44.4957 34.4423 40.1002 36.9793L36.1058 39.3803C35.4774 39.742 34.6752 39.5271 34.3136 38.9005H34.3118Z" fill="#0294FF"/>
<path d="M36.2079 14.6813H20.6401L27.3327 0.443848L36.2079 14.6813Z" fill="#003BDF"/>
</svg>
