<svg width="21" height="22" viewBox="0 0 21 22" fill="none" xmlns="http://www.w3.org/2000/svg">
<path fill-rule="evenodd" clip-rule="evenodd" d="M10.5 21.8276C4.70193 21.8276 0 17.1257 0 11.3276C0 5.52957 4.70193 0.827637 10.5 0.827637C16.2981 0.827637 21 5.52957 21 11.3276C21 17.1257 16.2981 21.8276 10.5 21.8276ZM9.05538 13.1751L15.3564 6.87423C15.5744 6.65613 15.9324 6.65836 16.1483 6.87423L16.8628 7.58873C17.0786 7.8046 17.0786 8.16482 16.8628 8.38061L9.4624 15.781C9.33004 15.9134 9.14409 15.9655 8.96989 15.9356C8.85067 15.9206 8.73567 15.8683 8.64588 15.7786L4.13791 11.2706C3.92245 11.0551 3.91989 10.6967 4.13791 10.4786L4.85241 9.76413C5.07051 9.54611 5.42627 9.54611 5.64437 9.76413L9.05538 13.1751Z" fill="#00F2FF"/>
</svg>
