<svg width="177" height="40" viewBox="0 0 177 40" fill="none" xmlns="http://www.w3.org/2000/svg">
<g clip-path="url(#clip0_185_34208)">
<path d="M20.6401 14.6818H9.18848C4.11441 14.6818 0 10.5692 0 5.49335V1.75672C0 1.0316 0.587261 0.444336 1.31238 0.444336H11.969C12.4453 0.444336 12.8857 0.703948 13.1167 1.11933L20.6401 14.68V14.6818Z" fill="#00F2FF"/>
<path d="M47.6666 14.6818H20.6401L27.3345 0.444336H39.7923C44.8664 0.444336 48.9808 4.55874 48.9808 9.63282V13.3694C48.9808 14.0946 48.3935 14.6818 47.6684 14.6818H47.6666Z" fill="#00F2FF"/>
<path d="M34.3118 38.901L20.6401 14.6818L27.3345 0.444336L42.6606 25.0305C45.1976 29.4242 44.4958 34.4428 40.1003 36.9798L36.1058 39.3808C35.4774 39.7425 34.6753 39.5276 34.3136 38.901H34.3118Z" fill="#0294FF"/>
<path d="M36.2079 14.6818H20.6401L27.3327 0.444336L36.2079 14.6818Z" fill="#003BDF"/>
<path d="M62.6166 19.476V25.5402C62.6166 27.114 63.7535 27.1444 65.9109 27.0263V30.437C60.6346 31.0207 58.8567 29.4756 58.8567 25.5402V19.476H56.3214V15.8611H58.8567V12.9177L62.6166 11.7808V15.8611H65.9109V19.476H62.6166Z" fill="white"/>
<path d="M82.9631 15.861V30.4369H79.2032V28.7163C78.154 30.0287 76.5802 30.8451 74.4514 30.8451C70.5751 30.8451 67.3684 27.4934 67.3684 23.1499C67.3684 18.8063 70.5751 15.4546 74.4514 15.4546C76.5802 15.4546 78.154 16.271 79.2032 17.5834V15.8628H82.9631V15.861ZM79.2032 23.1481C79.2032 20.6988 77.4826 19.0372 75.1514 19.0372C72.8203 19.0372 71.1283 20.6988 71.1283 23.1481C71.1283 25.5974 72.8489 27.2589 75.1514 27.2589C77.4539 27.2589 79.2032 25.5974 79.2032 23.1481Z" fill="white"/>
<path d="M86.3738 9.15576H90.1337V30.4368H86.3738V9.15576Z" fill="white"/>
<path d="M100.86 27.4324C102.318 27.4324 103.483 26.8201 104.126 25.975L107.157 27.7242C105.788 29.7062 103.601 30.8432 100.803 30.8432C95.9062 30.8432 92.8159 27.4915 92.8159 23.1479C92.8159 18.8043 95.9348 15.4526 100.511 15.4526C104.826 15.4526 107.886 18.8634 107.886 23.1479C107.886 23.7011 107.827 24.1971 107.741 24.693H96.7512C97.2758 26.6178 98.8801 27.4324 100.862 27.4324H100.86ZM104.126 21.7782C103.659 19.6798 102.085 18.8348 100.511 18.8348C98.5005 18.8348 97.129 19.9126 96.6922 21.7782H104.126Z" fill="white"/>
<path d="M124.123 21.4862V30.4348H120.363V21.9517C120.363 19.9697 119.167 18.9492 117.477 18.9492C115.64 18.9492 114.27 20.027 114.27 22.5641V30.4348H110.511V15.8589H114.27V17.4918C115.144 16.1794 116.661 15.4507 118.614 15.4507C121.704 15.4507 124.123 17.6082 124.123 21.4844V21.4862Z" fill="white"/>
<path d="M132.372 19.476V25.5402C132.372 27.114 133.509 27.1444 135.666 27.0263V30.437C130.39 31.0207 128.612 29.4756 128.612 25.5402V19.476H126.077V15.8611H128.612V12.9177L132.372 11.7808V15.8611H135.666V19.476H132.372Z" fill="white"/>
<path d="M137.881 11.809C137.881 10.5557 138.93 9.47607 140.183 9.47607C141.437 9.47607 142.516 10.5539 142.516 11.809C142.516 13.0641 141.467 14.1115 140.183 14.1115C138.9 14.1115 137.881 13.0623 137.881 11.809ZM138.318 15.8607H142.078V30.4366H138.318V15.8607Z" fill="white"/>
<path d="M159.131 21.4862V30.4348H155.371V21.9517C155.371 19.9697 154.175 18.9492 152.485 18.9492C150.648 18.9492 149.279 20.027 149.279 22.5641V30.4348H145.519V15.8589H149.279V17.4918C150.152 16.1794 151.669 15.4507 153.622 15.4507C156.713 15.4507 159.131 17.6082 159.131 21.4844V21.4862Z" fill="white"/>
<path d="M161.579 23.1479C161.579 18.8043 164.99 15.4526 169.274 15.4526C173.559 15.4526 177 18.8043 177 23.1479C177 27.4915 173.56 30.8432 169.274 30.8432C164.988 30.8432 161.579 27.4915 161.579 23.1479ZM173.24 23.1479C173.24 20.7863 171.519 19.1248 169.276 19.1248C167.033 19.1248 165.341 20.7863 165.341 23.1479C165.341 25.5095 167.061 27.171 169.276 27.171C171.491 27.171 173.24 25.5095 173.24 23.1479Z" fill="white"/>
</g>
<defs>
<clipPath id="clip0_185_34208">
<rect width="177" height="39.1121" fill="white" transform="translate(0 0.444336)"/>
</clipPath>
</defs>
</svg>
